PathFileType	4	(X/Y/Z)	C:/Users/beibeiliu/ov580/test_trc/User1\sequence.1_training_dense_right.trc
DataRate	CameraRate	NumFrames	NumMarkers	Units	OrigDataRate	OrigDataStartFrame	OrigNumFrames
120	120	22	19	mm	120	74	294
Frame#	Time	ThumbCMC			ThumbMCP			ThumbIP			ThumbTip			IndexMCP			IndexPIP			IndexTip			MiddleMCP			MiddlePIP			MiddleTip			RingMCP			RingPIP			RingTip			PinkyMCP			PinkyPIP			PinkyTip			BackHand1			BackHand2			BackHand3	
		X0	Y0	Z0	X1	Y1	Z1	X2	Y2	Z2	X3	Y3	Z3	X4	Y4	Z4	X5	Y5	Z5	X6	Y6	Z6	X7	Y7	Z7	X8	Y8	Z8	X9	Y9	Z9	X10	Y10	Z10	X11	Y11	Z11	X12	Y12	Z12	X13	Y13	Z13	X14	Y14	Z14	X15	Y15	Z15	X16	Y16	Z16	X17	Y17	Z17	X18	Y18	Z18	
73	0.608333	122.384	25.4033	79.1638	97.2641	11.0846	65.8689	84.725	4.15743	42.7481	69.4643	-4.0642	27.8774	125.366	33.5777	-7.50546	122.235	17.7035	-34.5577	129.829	-7.1822	-49.1574	152.277	43.0323	-17.1982	154.328	29.4931	-43.715	157.155	-0.412878	-63.3588	175.652	46.9915	-6.71814	181.111	37.5049	-40.9838	182.479	10.7353	-56.4804	201.773	40.2027	10.9762	208.603	36.0739	-17.1176	203.072	15.4303	-41.0385	176.98	51.8389	46.056	180.622	55.615	81.3987	144.095	50.3306	66.3928	
74	0.616667	122.041	25.2684	79.836	99.3382	11.1587	61.7189	84.7914	3.37182	43.1321	70.5532	-6.48332	26.3829	126.575	27.5029	-8.15703	125.589	9.95406	-35.8701	135.025	-15.4662	-47.5248	154.036	35.132	-18.5427	158.063	18.2072	-45.7472	161.658	-9.61678	-61.407	178.842	39.7435	-7.67288	183.531	23.4287	-41.8233	184.653	0.870785	-53.3598	203.139	33.1283	10.2787	209.021	23.437	-18.2036	201.759	1.8152	-36.5385	180.464	50.0829	43.6024	180.856	55.3517	80.6154	144.394	51.1975	60.4502	
75	0.625	120.498	28.476	77.8036	97.6821	14.1612	64.426	82.2701	5.63015	44.6296	64.6485	-3.50404	26.9444	128.136	22.5722	-11.2481	127.858	4.50441	-34.7089	130.559	-22.2292	-47.0044	154.571	29.7772	-16.6461	156.498	9.1685	-45.9725	160.848	-23.9772	-60.4362	182.446	30.0932	-13.5165	183.213	16.005	-37.7259	185.125	-13.5457	-49.6446	204.716	24.285	10.6958	211.476	13.2001	-12.7731	205.118	-11.8638	-32.7684	182.397	47.404	42.4064	182.475	53.9624	77.7428	144.131	52.7039	58.2743	
76	0.633333	120.767	31.7956	77.9075	95.7466	18.1641	58.8397	81.4482	9.22021	41.6164	62.2764	0.278748	28.8702	131.807	21.9425	-9.37989	125.45	2.2237	-33.6937	131.75	-29.7901	-46.8074	156.711	23.1593	-19.3834	159.244	1.41207	-44.6722	157.841	-29.3628	-55.9961	180.983	21.7295	-10.5664	184.485	0.40447	-38.6305	182.757	-26.7267	-45.4689	203.39	14.4663	9.63977	209.135	0.0736719	-11.1563	199.181	-25.1283	-29.0843	181.511	43.3185	45.7278	186.327	54.1385	72.7075	148.703	52.2856	60.8616	
77	0.641667	119.534	36.0143	75.7333	98.508	21.4588	60.7809	80.2065	15.7764	41.6376	61.479	6.50083	27.4677	126.619	18.5156	-13.5971	125.246	-2.28114	-33.4179	128.072	-31.3733	-44.079	158.388	15.6922	-19.6845	154.135	-5.26081	-41.4731	155.417	-39.2865	-51.8874	184.688	9.34746	-13.8947	179.34	-10.1186	-33.3605	174.722	-37.8067	-40.0286	205.887	2.51976	11.8809	207.075	-16.521	-8.25155	194.354	-41.8621	-21.1053	183.297	37.5435	41.5723	188.535	48.0144	71.6555	153.26	50.1256	56.2249	
78	0.65	119.929	41.6143	76.1755	95.7752	29.8599	62.074	76.1198	23.866	36.3151	63.0263	13.9179	21.906	129.96	17.3594	-9.09006	121.459	-3.01581	-31.9593	121.334	-33.4985	-40.6617	157.289	11.4939	-15.4347	155.109	-14.0943	-37.8912	146.568	-45.8325	-46.2989	181.411	-0.522316	-9.32903	177.683	-25.4072	-29.3069	166.076	-52.019	-30.7986	200.986	-9.32466	11.638	201.255	-27.0903	-2.77842	184.249	-48.5073	-16.2233	184.169	35.1059	42.0717	186.661	48.4611	73.8582	154.382	50.0653	54.0476	
79	0.658333	120.013	44.8199	73.6222	94.6924	36.9746	59.1077	80.13	29.2636	41.4811	63.4549	22.3365	23.3065	124.217	14.5223	-11.6544	120.129	-8.9852	-30.3636	109.322	-34.5682	-35.9222	152.214	5.84445	-14.6523	146.256	-19.3474	-33.9262	132.006	-54.8919	-40.791	173.618	-5.7883	-4.11261	165.874	-33.3265	-24.5986	151.944	-61.4598	-22.9343	195.124	-18.1524	15.5521	186.749	-34.7008	0.200166	171.974	-60.0818	-10.0009	183.445	30.0245	44.0734	186.623	43.6536	71.4764	153.957	49.5601	55.7373	
80	0.666667	121.694	49.1223	74.009	94.0238	41.5326	56.4907	77.4709	35.771	38.6404	57.4112	32.2736	25.879	124.866	11.8267	-10.703	112.627	-9.17407	-27.1579	101.377	-36.5206	-31.4831	148.536	-1.49398	-13.591	139.042	-26.6143	-31.0807	119.731	-54.7387	-35.1006	168.107	-12.9347	-2.51545	155.967	-37.865	-19.1193	138.096	-63.8744	-18.652	184.174	-23.7328	17.8066	176.583	-46.5534	4.16988	155.203	-66.815	-2.90815	180.652	24.6263	44.0887	187.337	37.0922	72.421	155.135	47.8291	55.1916	
81	0.675	122.06	50.1555	73.1274	94.7448	44.4097	58.0275	76.6572	41.084	38.8441	61.2123	34.5327	24.9117	118.232	12.4443	-9.23811	105.545	-9.55534	-24.4687	90.2044	-36.5426	-28.4382	143.666	-8.00587	-13.8936	127.339	-32.8696	-27.8609	105.713	-56.7656	-29.5554	161.366	-21.4291	-1.73976	143.857	-44.5452	-17.434	127.159	-69.7002	-12.7955	175.73	-32.5464	19.8134	166.232	-53.259	8.15625	143.682	-68.7789	-0.343644	179.161	17.8731	46.8195	190.213	30.25	74.1627	159.299	43.0845	53.8094	
82	0.683333	122.163	53.8257	71.1223	96.5206	48.8367	56.5755	79.388	44.1487	35.533	60.6415	41.9036	22.5187	118.154	8.62173	-8.36841	103.577	-9.04312	-22.513	87.6328	-32.8086	-23.8891	137.361	-8.21844	-10.3917	119.624	-26.9854	-25.4861	93.3316	-57.6202	-25.4876	152.486	-25.9444	-0.568752	132.507	-47.6787	-13.7635	114.379	-66.4975	-9.42514	167.608	-35.5525	24.0012	154.824	-57.5537	11.7871	130.986	-69.063	3.87638	177.138	9.62028	42.7197	187.47	25.7241	70.4772	157.745	40.4546	51.0393	
83	0.691667	128.709	52.8374	71.2639	98.3702	53.8221	54.1963	81.7579	51.3295	36.0242	62.5344	49.5748	20.9899	118.897	10.0486	-6.78732	98.061	-7.91018	-23.8591	76.4685	-28.4079	-25.5275	135.229	-11.9228	-8.85539	113.767	-30.433	-23.3151	85.6557	-51.8948	-23.5097	145.6	-26.5981	3.46204	127.134	-48.6079	-9.77667	98.1637	-64.1773	-8.18644	156.186	-43.5329	24.1979	139.182	-59.8957	13.5696	116.571	-69.0724	7.27317	176.45	2.92625	44.9972	188.646	16.8545	75.7817	162.007	37.9333	50.5312	
84	0.7	132.44	53.2779	69.6736	105.039	54.3465	52.3365	84.6385	56.0665	31.5429	67.9157	53.7287	20.1074	115.491	13.2982	-9.77889	97.0621	-7.49659	-22.7772	73.0399	-24.6715	-25.2922	129.492	-11.8831	-7.35566	104.496	-31.5958	-24.4252	75.9159	-50.7672	-22.4176	136.83	-31.0926	1.53342	117.621	-53.0049	-8.38324	88.2769	-59.5047	-7.37628	149.804	-45.3305	30.1591	132.022	-63.9674	17.9426	104.428	-66.1642	9.89519	169.621	-0.143215	43.1241	185.456	9.68231	72.8548	162.85	31.0351	49.9969	
85	0.708333	135.831	51.8188	66.3022	108.753	58.1508	50.7379	91.1566	56.2807	29.2889	72.2835	62.111	16.7552	117.697	12.0692	-7.90603	97.1785	-4.12219	-24.8756	70.0507	-20.2124	-28.0349	123.654	-14.262	-11.4158	102.967	-30.4317	-23.0107	67.0055	-44.5135	-23.9078	131.808	-37.9304	4.23369	109.254	-48.7948	-9.40531	79.5226	-60.669	-6.41914	137.775	-50.7508	28.7508	120.731	-64.0671	19.1645	90.2003	-63.8406	11.179	167.429	-5.68017	47.0819	182.457	3.26773	77.3779	165.752	27.1825	53.5329	
86	0.716667	138.785	52.4314	64.5111	112.899	61.9697	50.1813	95.3871	63.4793	24.9688	78.4269	67.86	14.278	118.152	10.6762	-11.9619	99.2212	-2.01188	-24.9162	68.1774	-18.556	-29.9279	124.479	-16.4404	-10.2974	97.8428	-29.4626	-25.4995	62.3372	-37.4581	-25.6578	126.179	-39.1891	2.49825	100.698	-47.7339	-11.6141	70.6912	-51.8928	-10.5264	130.744	-50.9187	29.6092	110.518	-61.5822	17.2123	85.3543	-62.6026	8.82255	163.4	-12.205	45.9878	182.239	-3.1392	75.2063	166.065	23.3557	48.9682	
87	0.725	143.412	51.4506	66.0375	118.672	61.2608	43.4281	101.596	66.2615	21.2217	85.2952	69.7959	5.55262	121.357	8.81253	-12.1938	101.09	-1.10645	-26.9767	72.9086	-9.05153	-34.7881	122.004	-16.4913	-12.8418	96.8136	-23.8661	-27.0439	64.0104	-33.7409	-27.9384	123.303	-37.3782	2.21589	97.1928	-48.4964	-10.7694	68.9268	-48.725	-12.0236	124.063	-53.0219	31.1329	103.483	-59.5761	19.1896	75.2912	-60.5771	10.5389	163.672	-16.6202	48.2577	176.314	-7.50241	75.4384	166.766	20.1267	52.7622	
88	0.733333	148.206	50.5931	65.838	125.357	65.2345	43.0313	110.866	65.8794	20.8526	94.6876	68.9976	2.97287	124.573	8.22318	-11.7834	100.643	-2.537	-30.3275	71.2689	-5.67089	-37.0528	122.44	-20.4164	-11.7204	98.1338	-25.427	-27.2019	62.1927	-26.9714	-32.642	119.004	-35.0775	0.708941	91.9969	-43.8945	-13.2067	61.137	-45.2009	-12.4269	119.22	-49.2548	29.5942	95.2597	-57.9358	18.4943	67.8528	-53.2222	7.35728	157.573	-17.7851	45.2725	173.882	-10.2317	74.1412	168.417	17.2304	50.2588	
89	0.741667	152.823	46.8118	58.6858	133.294	63.0123	40.3338	119.818	68.5606	14.7546	105.438	72.4412	1.16715	126.888	8.41047	-14.0047	106.127	3.06675	-32.281	73.216	-5.27036	-38.9838	122.314	-19.9901	-10.8261	95.2248	-22.7085	-31.098	60.1247	-19.9646	-35.4657	115.839	-36.1964	0.610006	90.1828	-43.1598	-11.5973	61.1454	-35.7765	-15.7778	111.02	-50.642	30.7392	91.9245	-53.0457	17.5608	66.6451	-49.0008	5.96192	155.745	-23.7543	49.8163	169.659	-18.2322	76.7723	169.837	12.6824	47.0203	
90	0.75	159.073	45.6893	58.7862	142.222	62.7172	34.3448	129.591	67.964	8.77541	116.289	77.2351	-6.23358	130.41	7.79296	-18.7479	107.566	-0.248592	-33.0375	78.9751	1.09807	-42.2444	122.916	-21.3273	-11.1163	95.9838	-21.1097	-32.413	63.6833	-17.1511	-38.1133	113.545	-38.3944	3.53776	83.4186	-38.354	-15.0025	55.2143	-29.0126	-15.8736	106.337	-46.7498	30.1021	82.9281	-50.6103	17.9776	62.9662	-40.2949	4.99276	151.743	-25.3586	45.8645	168.577	-17.5881	79.7904	171.624	7.91725	46.8754	
91	0.758333	163.42	38.2795	57.561	151.529	59.8971	31.7093	139.343	66.1993	12.691	129.102	77.743	-7.27977	132.739	2.30187	-17.5056	109.192	1.38906	-38.8027	81.3163	4.38575	-45.5822	121.813	-22.0932	-13.6865	93.8555	-20.4214	-36.0107	63.2459	-11.201	-41.5353	110.607	-36.8919	0.273521	80.2929	-36.9768	-16.1727	57.8435	-22.1596	-19.0687	100.534	-46.9274	31.0647	77.9997	-44.1136	14.7391	59.886	-33.174	2.21717	148.829	-30.283	46.3276	164.214	-25.0939	79.7726	171.767	2.4285	50.409	
92	0.766667	168.224	35.5583	54.8597	156.403	53.5203	33.4334	150.137	65.6385	9.79466	138.51	72.4495	-9.10767	137.319	2.11857	-19.143	114.429	0.296257	-41.358	86.1601	4.88754	-48.3783	123.157	-23.4799	-14.5698	98.0226	-18.4634	-37.4506	67.1273	-10.9415	-42.371	109.697	-35.163	-0.21334	84.6385	-34.9732	-16.641	54.4446	-16.042	-20.6581	95.4642	-44.3642	26.423	80.0069	-40.8456	13.2389	58.5814	-24.8301	-2.47465	146.147	-32.8453	48.9041	160.331	-29.2079	82.5633	170.301	-2.5458	51.3884	
93	0.775	172.213	31.8913	56.7532	165.179	53.9672	34.0004	159.255	61.0077	5.33621	152.508	74.5773	-12.2863	142.145	-0.523678	-18.112	123.268	0.135524	-41.186	91.6859	6.34783	-50.667	127.571	-22.6019	-14.086	98.2866	-20.3558	-37.808	71.0588	-3.71563	-47.3826	108.692	-34.4274	-0.80757	85.8749	-30.4289	-18.3505	64.3475	-12.3605	-25.9856	95.7272	-39.6904	25.9809	76.6601	-37.0692	10.9369	59.5169	-18.6497	-5.01503	142.45	-35.3372	49.1067	158.938	-26.3755	83.6657	172.26	-7.82261	49.4226	
94	0.783333	173.828	30.4293	61.6623	170.653	51.562	36.8355	167.805	59.8278	6.32553	158.924	68.7942	-14.9986	144.094	-3.22318	-17.9248	124.882	-1.448	-42.6728	102.626	9.96814	-55.4127	128.306	-23.8954	-15.5547	103.432	-18.067	-39.8384	75.5556	-0.875956	-50.6965	109.745	-34.8489	-2.06721	86.9187	-28.5559	-20.2848	64.735	-10.3979	-28.2249	99.4524	-35.7065	24.6313	80.3003	-31.5848	6.39346	62.1019	-12.3304	-10.8676	141.048	-34.0513	50.1027	153.421	-30.5704	80.0812	175.021	-8.18247	54.3992	
